HIERARCHY
ROOT Hips
{
    OFFSET 0.000000 0.000000 0.000000
    CHANNELS 6 Xposition Yposition Zposition Zrotation Xrotation Yrotation
    JOINT Spine
    {
        OFFSET -0.000000 14.517291 0.000000
        CHANNELS 3 Zrotation Xrotation Yrotation
        JOINT Spine1
        {
            OFFSET -0.000000 37.558300 0.000000
            CHANNELS 3 Zrotation Xrotation Yrotation
            JOINT Neck
            {
                OFFSET -0.000000 37.404057 3.400369
                CHANNELS 3 Zrotation Xrotation Yrotation
                JOINT Head
                {
                    OFFSET -0.000000 24.785618 -3.540803
                    CHANNELS 3 Zrotation Xrotation Yrotation
                    End Site
                    {
                        OFFSET -0.000000 35.408028 0.000000
                    }
                }
            }
            JOINT LeftShoulder
            {
                OFFSET 6.992933 33.973492 -0.192664
                CHANNELS 3 Zrotation Xrotation Yrotation
                JOINT LeftArm
                {
                    OFFSET 21.527611 0.000000 0.000000
                    CHANNELS 3 Zrotation Xrotation Yrotation
                    JOINT LeftForeArm
                    {
                        OFFSET 56.353916 0.000000 0.000000
                        CHANNELS 3 Zrotation Xrotation Yrotation
                        JOINT LeftHand
                        {
                            OFFSET 47.774071 0.000000 0.000000
                            CHANNELS 3 Zrotation Xrotation Yrotation
                            End Site
                            {
                                OFFSET 26.556021 0.000000 0.000000
                            }
                        }
                    }
                }
            }
            JOINT RightShoulder
            {
                OFFSET -7.065357 33.973492 -0.192664
                CHANNELS 3 Zrotation Xrotation Yrotation
                JOINT RightArm
                {
                    OFFSET -21.527611 0.000000 0.000000
                    CHANNELS 3 Zrotation Xrotation Yrotation
                    JOINT RightForeArm
                    {
                        OFFSET -56.353916 0.000000 0.000000
                        CHANNELS 3 Zrotation Xrotation Yrotation
                        JOINT RightHand
                        {
                            OFFSET -47.774071 0.000000 0.000000
                            CHANNELS 3 Zrotation Xrotation Yrotation
                            End Site
                            {
                                OFFSET -26.556021 0.000000 0.000000
                            }
                        }
                    }
                }
            }
        }
    }
    JOINT LeftUpLeg
    {
        OFFSET 17.704014 0.000000 0.000000
        CHANNELS 3 Zrotation Xrotation Yrotation
        JOINT LeftLeg
        {
            OFFSET -0.000000 -81.181816 0.000000
            CHANNELS 3 Zrotation Xrotation Yrotation
            JOINT LeftFoot
            {
                OFFSET -0.000000 -62.821102 0.000000
                CHANNELS 3 Zrotation Xrotation Yrotation
                JOINT LeftToeBase
                {
                    OFFSET -0.000000 -11.507608 26.556021
                    CHANNELS 3 Zrotation Xrotation Yrotation
                    End Site
                    {
                        OFFSET -0.000000 0.000000 7.081605
                    }
                }
            }
        }
    }
    JOINT RightUpLeg
    {
        OFFSET -17.704014 0.000000 0.000000
        CHANNELS 3 Zrotation Xrotation Yrotation
        JOINT RightLeg
        {
            OFFSET -0.000000 -81.181816 0.000000
            CHANNELS 3 Zrotation Xrotation Yrotation
            JOINT RightFoot
            {
                OFFSET -0.000000 -62.821102 0.000000
                CHANNELS 3 Zrotation Xrotation Yrotation
                JOINT RightToeBase
                {
                    OFFSET -0.000000 -11.507608 26.556021
                    CHANNELS 3 Zrotation Xrotation Yrotation
                    End Site
                    {
                        OFFSET -0.000000 0.000000 7.081605
                    }
                }
            }
        }
    }
}
MOTION
Frames:    8
Frame Time:    0.008333
2.525198    151.641769    -84.468369    2.619271    -4.641464    38.679306    -2.163656    2.288458    0.870655    -1.571248    2.112341    0.305235    0.998093    8.521091    -18.245419    13.537236    -6.441207    -16.457991    0.394783    9.237751    -12.683992    -36.234467    21.124443    -41.647869    -4.298540    -30.694244    -120.008568    -12.676172    -35.819099    -11.914227    0.114168    11.639229    -5.335820    29.202520    15.793686    44.956459    -3.725327    10.839083    36.575478    -17.377136    6.218543    37.239037    15.182050    -7.297412    -6.916636    -16.099585    42.909592    -23.707645    10.649870    -28.263760    47.735435    0.000000    0.000000    0.000000    -23.006376    -15.380959    -6.832867    5.781022    19.013733    -7.219987    6.993098    -2.545999    -17.170061    0.000000    0.000000    0.000000    
2.492263    151.641006    -84.483185    2.639355    -4.618969    38.502159    -2.236323    2.270544    0.911246    -1.562551    2.124102    0.318398    1.007067    8.489694    -18.208973    13.509600    -6.384097    -16.432621    0.399931    9.230593    -12.676124    -36.216469    21.113312    -41.673489    -4.285813    -30.731756    -119.984734    -12.754360    -35.822178    -11.966376    0.121624    11.804728    -5.456823    29.134764    15.768286    45.194244    -3.793490    10.747464    36.486954    -17.345490    6.159420    37.218060    15.163964    -7.221712    -6.831996    -16.118540    42.847626    -23.702309    10.673177    -28.263815    47.809650    0.000000    0.000000    0.000000    -23.098742    -15.376597    -7.356439    5.766323    18.900026    -7.313005    6.919261    -2.297476    -17.411024    0.000000    0.000000    0.000000    
2.450674    151.639099    -84.493660    2.662003    -4.588290    38.320335    -2.313441    2.256417    0.962426    -1.557345    2.125273    0.335043    0.997687    8.491501    -18.183372    13.521233    -6.359501    -16.405663    0.402921    9.220442    -12.671936    -36.191216    21.104109    -41.693527    -4.270835    -30.761305    -119.960770    -12.812671    -35.816170    -12.019835    0.124791    11.796540    -5.447622    29.161787    15.747633    45.175011    -3.813731    10.776372    36.457096    -17.332520    6.184874    37.299675    15.151936    -7.149477    -6.767144    -16.188868    42.773598    -23.641388    10.716466    -28.243675    47.884903    0.000000    0.000000    0.000000    -23.183786    -15.385289    -7.855577    5.727270    18.788033    -7.374259    6.815042    -2.040212    -17.508490    0.000000    0.000000    0.000000    
2.392464    151.631134    -84.505890    2.699215    -4.573365    38.092007    -2.393485    2.292888    1.051227    -1.552700    2.098335    0.363433    0.978043    8.469619    -18.156588    13.527036    -6.303663    -16.381674    0.402030    9.225870    -12.653213    -36.139446    21.082315    -41.758190    -4.254657    -30.777176    -119.923782    -12.824122    -35.801434    -12.035264    0.120735    11.797863    -5.433902    29.174351    15.732206    45.162308    -3.825263    10.770741    36.450436    -17.361572    6.177048    37.274040    15.148571    -7.042768    -6.619557    -16.228022    42.707928    -23.588711    10.734572    -28.228483    47.910641    0.000000    0.000000    0.000000    -23.239912    -15.427744    -8.225682    5.678611    18.673325    -7.464480    6.776216    -1.708488    -17.593729    0.000000    0.000000    0.000000    
2.338907    151.624649    -84.492004    2.722755    -4.548749    37.915577    -2.467717    2.279241    1.092392    -1.543118    2.108824    0.376701    0.929688    8.433460    -18.118483    13.553535    -6.228129    -16.342152    0.390905    9.221380    -12.623767    -36.100540    21.026497    -41.825550    -4.236898    -30.720381    -119.857292    -12.722687    -35.718121    -12.093927    0.105403    11.821272    -5.432863    29.149956    15.798697    45.202393    -3.929818    10.676579    36.437981    -17.323408    6.137309    37.222755    15.158947    -6.961255    -6.534432    -16.304436    42.633732    -23.513760    10.764720    -28.209774    47.937683    0.000000    0.000000    0.000000    -23.293386    -15.430423    -8.542251    5.652480    18.509306    -7.637513    6.807552    -1.379210    -17.549387    0.000000    0.000000    0.000000    
2.284925    151.610443    -84.474007    2.739868    -4.530604    37.761597    -2.518393    2.256604    1.126437    -1.551514    2.131354    0.388260    0.909350    8.437654    -18.095505    13.563174    -6.201442    -16.317772    0.393051    9.211842    -12.626581    -36.077679    20.978310    -41.854984    -4.236664    -30.676647    -119.818893    -12.684977    -35.673367    -12.113896    0.098259    11.825283    -5.420233    29.144226    15.823256    45.200333    -3.992936    10.627841    36.421516    -17.304174    6.099393    37.313122    15.170420    -6.894069    -6.439541    -16.342951    42.587284    -23.458717    10.787575    -28.211327    47.951611    0.000000    0.000000    0.000000    -23.338017    -15.438690    -8.766354    5.644560    18.358492    -7.703687    6.867288    -1.040386    -17.638241    0.000000    0.000000    0.000000    
2.222825    151.599915    -84.446823    2.757950    -4.521171    37.629341    -2.556571    2.260511    1.143207    -1.570432    2.131108    0.393997    0.882962    8.418550    -18.065628    13.566207    -6.141322    -16.291050    0.386877    9.198194    -12.609393    -36.033669    20.985308    -41.885502    -4.240065    -30.723721    -119.822632    -12.781253    -35.720299    -12.052202    0.080126    11.842641    -5.406591    29.183014    15.797432    45.204197    -4.020008    10.626482    36.402596    -17.327868    6.098639    37.309185    15.192507    -6.827031    -6.371664    -16.394512    42.535568    -23.417616    10.814451    -28.199923    47.978958    0.000000    0.000000    0.000000    -23.377975    -15.451770    -8.989245    5.656221    18.257322    -7.728878    6.950542    -0.751998    -17.688740    0.000000    0.000000    0.000000    
2.149019    151.583435    -84.408424    2.760262    -4.516873    37.490814    -2.587109    2.250975    1.161557    -1.590022    2.144293    0.400435    0.857871    8.401237    -18.037262    13.591966    -6.078742    -16.261959    0.394919    9.184274    -12.578960    -35.984642    20.944437    -41.980129    -4.213584    -30.670540    -119.725014    -12.655785    -35.623810    -12.140714    0.069852    11.839482    -5.383233    29.195023    15.787420    45.202477    -4.026515    10.590390    36.404770    -17.253464    6.107532    37.204979    15.238020    -6.766994    -6.285994    -16.433723    42.497425    -23.381180    10.829695    -28.207191    47.993774    0.000000    0.000000    0.000000    -23.388506    -15.489857    -9.133012    5.669018    18.168339    -7.819267    7.098288    -0.445615    -17.702997    0.000000    0.000000    0.000000    
